/* XPM */
static char * pyscrabble_xpm[] = {
"48 48 289 2",
"  	c None",
". 	c #E1CEB5",
"+ 	c #DDC5A5",
"@ 	c #DEC7A8",
"# 	c #E0CAAE",
"$ 	c #E3CC8E",
"% 	c #FBF3AD",
"& 	c #FEF7B2",
"* 	c #FEF9B5",
"= 	c #FEF9B9",
"- 	c #FEF9BD",
"; 	c #FEFAC1",
"> 	c #FEFAC5",
", 	c #F5EABA",
"' 	c #D7BB94",
") 	c #E9D69D",
"! 	c #FFFDB5",
"~ 	c #FEF9B2",
"{ 	c #FFFCC1",
"] 	c #FFFDC5",
"^ 	c #FFFDC9",
"/ 	c #FFFED1",
"( 	c #FEFACD",
"_ 	c #E4CEB3",
": 	c #E3D0B4",
"< 	c #FEFAC9",
"[ 	c #FFFDD5",
"} 	c #F9EBC0",
"| 	c #C9C5C1",
"1 	c #D5B99B",
"2 	c #E1CAA2",
"3 	c #FEFAD1",
"4 	c #FFF5CD",
"5 	c #AEAA9E",
"6 	c #D8BEA2",
"7 	c #9B9287",
"8 	c #DFC9B2",
"9 	c #FFFECD",
"0 	c #FFFAD5",
"a 	c #FFFCD9",
"b 	c #90867B",
"c 	c #E4D1BE",
"d 	c #FFFDBA",
"e 	c #BAB68D",
"f 	c #68664E",
"g 	c #6C6A54",
"h 	c #959375",
"i 	c #DEDCB1",
"j 	c #E0C9B3",
"k 	c #79785D",
"l 	c #222329",
"m 	c #787773",
"n 	c #75746E",
"o 	c #6A6866",
"p 	c #242426",
"q 	c #010202",
"r 	c #B0AE90",
"s 	c #D8BB9F",
"t 	c #FFFDBD",
"u 	c #28292A",
"v 	c #EFEEC2",
"w 	c #DAD7B2",
"x 	c #131314",
"y 	c #1D1D1B",
"z 	c #F4F1C8",
"A 	c #FFFCDD",
"B 	c #8C8276",
"C 	c #DABFA5",
"D 	c #222224",
"E 	c #ECE9BE",
"F 	c #6E6D5C",
"G 	c #C6C3A6",
"H 	c #FFFCE1",
"I 	c #8C8176",
"J 	c #E1CAA5",
"K 	c #7A7861",
"L 	c #767563",
"M 	c #D0CDB2",
"N 	c #FFF8D9",
"O 	c #8A7F73",
"P 	c #ECEACA",
"Q 	c #E3E1BB",
"R 	c #22211C",
"S 	c #676866",
"T 	c #F5F2D4",
"U 	c #8A7F74",
"V 	c #7E7C65",
"W 	c #5E5D4E",
"X 	c #686755",
"Y 	c #2B2B27",
"Z 	c #57585B",
"` 	c #DAD9C5",
" .	c #FFFDE5",
"..	c #93897E",
"+.	c #353638",
"@.	c #8B8A84",
"#.	c #84827C",
"$.	c #88877F",
"%.	c #BBBAAB",
"&.	c #FBF1DC",
"*.	c #958169",
"=.	c #BEBAB1",
"-.	c #7B7965",
";.	c #FEFEE9",
">.	c #F8EFD6",
",.	c #AD9C7A",
"'.	c #ECE0AB",
").	c #EAD3A9",
"!.	c #E6D3BF",
"~.	c #DBC0A6",
"{.	c #F8EEDA",
"].	c #AC9B78",
"^.	c #EBE8B3",
"/.	c #FAF4BD",
"(.	c #E6D4A6",
"_.	c #E2CBAE",
":.	c #212122",
"<.	c #FFFEED",
"[.	c #AB9B78",
"}.	c #ECDCAD",
"|.	c #E1CDAD",
"1.	c #D7BA9D",
"2.	c #FBF9E5",
"3.	c #FFFFF1",
"4.	c #E2CDA9",
"5.	c #E4D3BC",
"6.	c #C5C3AA",
"7.	c #B2B1A5",
"8.	c #F3F2DD",
"9.	c #A4A395",
"0.	c #8A897F",
"a.	c #CCCABC",
"b.	c #FFFFF5",
"c.	c #F9F5C4",
"d.	c #E6D4AB",
"e.	c #E2CBAF",
"f.	c #D9BEA2",
"g.	c #E1CBA8",
"h.	c #FCFAE8",
"i.	c #9F9E95",
"j.	c #FEFEF9",
"k.	c #EEE0B8",
"l.	c #DEC8A6",
"m.	c #DAC2A8",
"n.	c #E5E4D6",
"o.	c #7E7C75",
"p.	c #B0AFA5",
"q.	c #ECDDBC",
"r.	c #E3D2BC",
"s.	c #DCC5AB",
"t.	c #FAF5E3",
"u.	c #F5F4E4",
"v.	c #888781",
"w.	c #86765D",
"x.	c #E6E4B5",
"y.	c #F3E4BE",
"z.	c #B4ABA5",
"A.	c #E9D5BD",
"B.	c #96958D",
"C.	c #DEDDD3",
"D.	c #FDFDFD",
"E.	c #EFE1CE",
"F.	c #43392C",
"G.	c #DAD8AD",
"H.	c #A89883",
"I.	c #E6D1AA",
"J.	c #9A866E",
"K.	c #D2CFA7",
"L.	c #D8D4AF",
"M.	c #D7D3AF",
"N.	c #C2B096",
"O.	c #DAC5A5",
"P.	c #AD987C",
"Q.	c #3C372A",
"R.	c #B6B494",
"S.	c #848269",
"T.	c #6E6D6B",
"U.	c #E8E4C3",
"V.	c #A1927F",
"W.	c #706E6E",
"X.	c #7F7366",
"Y.	c #94836E",
"Z.	c #93816D",
"`.	c #9A886F",
" +	c #9B8972",
".+	c #92816A",
"++	c #635844",
"@+	c #464435",
"#+	c #191916",
"$+	c #7B7A68",
"%+	c #CDCAA6",
"&+	c #3D3C33",
"*+	c #3F3F43",
"=+	c #FCEFCD",
"-+	c #6F665C",
";+	c #828282",
">+	c #696969",
",+	c #838383",
"'+	c #858585",
")+	c #7D7D7D",
"!+	c #3C3C3C",
"~+	c #717070",
"{+	c #645C51",
"]+	c #7D7B5E",
"^+	c #78775F",
"/+	c #515042",
"(+	c #EEECD2",
"_+	c #C4B295",
":+	c #605D5B",
"<+	c #B9B8B6",
"[+	c #71715F",
"}+	c #050509",
"|+	c #585859",
"1+	c #D0CDBC",
"2+	c #FCF4D4",
"3+	c #796959",
"4+	c #E9D5BE",
"5+	c #4C4B3F",
"6+	c #656462",
"7+	c #FAF8D9",
"8+	c #4F4A44",
"9+	c #CCCAAC",
"0+	c #8C7B67",
"a+	c #222121",
"b+	c #D6BB9E",
"c+	c #3D3D3F",
"d+	c #57514C",
"e+	c #DBC49D",
"f+	c #DCDAB8",
"g+	c #AB977E",
"h+	c #4B4845",
"i+	c #8A8873",
"j+	c #1F1F24",
"k+	c #D8D7C0",
"l+	c #60584D",
"m+	c #C8B296",
"n+	c #3F3D3B",
"o+	c #ECDAC4",
"p+	c #FFF9DF",
"q+	c #6D5F50",
"r+	c #CBB593",
"s+	c #DBC7AB",
"t+	c #2F2822",
"u+	c #70583E",
"v+	c #DAC596",
"w+	c #867766",
"x+	c #100C00",
"y+	c #58432B",
"z+	c #C8B28F",
"A+	c #939285",
"B+	c #908F84",
"C+	c #F0E1C7",
"D+	c #4A4033",
"E+	c #372614",
"F+	c #AC9779",
"G+	c #C8C7B5",
"H+	c #AB9881",
"I+	c #050400",
"J+	c #564E45",
"K+	c #9B9A8E",
"L+	c #594B3F",
"M+	c #8E8E8E",
"N+	c #7D7B79",
"O+	c #857767",
"P+	c #A6A59A",
"Q+	c #767573",
"R+	c #C5AE91",
"S+	c #050300",
"T+	c #BDBDBD",
"U+	c #8A8983",
"V+	c #7B7064",
"W+	c #B4A186",
"X+	c #F6E9CB",
"Y+	c #F6F2EB",
"Z+	c #FAF5E2",
"`+	c #311900",
" @	c #78716A",
".@	c #FFF9E3",
"+@	c #877256",
"@@	c #010000",
"#@	c #ACACAC",
"$@	c #777472",
"%@	c #897A69",
"&@	c #B6A38A",
"*@	c #C8B69D",
"=@	c #716455",
"-@	c #030100",
";@	c #161412",
">@	c #020204",
"                                                                                                ",
"          . + @ @ @ @ @ @ @ @ @ @ @ @ @ @ @ @ @ #                                               ",
"        $ % & & & & * * = = = = - - - ; ; ; > > > , '                                           ",
"      ) ! ~ ~ * * * = = = - - - ; { { ] ] ^ ^ ^ ^ / ( _                                         ",
"    : ~ ~ ~ * * * = = = - - - ; ; ; > > > < < < ( ( [ } |                                       ",
"  1 2 ! ~ * * * = = = - - - ; ; ; > > < < < < ( ( 3 [ 4 5                                       ",
"  6 2 ! * * = = = = - - ; ; ; ; > > < < < ( ( ( 3 3 [ ( 7                                       ",
"  8 2 ! * = = = - - - ] 9 9 9 / / 9 < < ( ( 3 3 3 0 a 3 b                                       ",
"  c 2 d = = = - - - ] e f g g g h i / ( ( 3 3 3 0 0 a 3 b                                       ",
"  j 2 d = = - - ; ; 9 k l m n o p q r a 3 3 3 0 0 [ a 0 b                                       ",
"  s 2 t - - - ; ; ; 9 k u v / / w x y z [ 0 0 0 a a A 0 B                                       ",
"  C 2 t - - ; ; ; > / k D E 9 9 A F q G A 0 0 a a a H 0 I                                       ",
"    J { ; ; ; ; > > [ K D E / ( H L x M A [ a a A A H N O                                       ",
"    J { ; ; > > > < [ K p P H H Q R S T a a a A A A H N U                                       ",
"    J ] ; > > > < < [ V q W X W Y Z ` a a a A A A H  .N ..                                      ",
"    J ] > > < < < ( a K +.@.#.$.%.T a a A A A A H H  .&.*.=.                                    ",
"    J ] > < < < ( ( A -.p P H A A a a A A A H H H  .;.>.,.'.).!.                                ",
"  ~.J ^ < < < ( ( 3 A -.D P a a a a A A A H H  . . .;.{.].^.] /.(._.                            ",
"  ~.J ^ < < ( ( 3 3 A -.:.P A a A A A A H H  . . .;.<.{.[.^.] ] ] ; }.|.8                       ",
"  1.J 9 ( ( 3 3 3 3 H -.u P A A A A H H H  . .2.2.3.<.{.[.^.] > > ] ^ < , 4.5.                  ",
"    J 9 ( ( 3 3 0 0 a 6.7.T A A A H H H  .;.8.9.0.a.b.{.[.^.] > > < < ^ 9 9 c.d.e.              ",
"  f.g./ 3 3 3 0 0 0 a A H A A A H H  . . .;.;.h.a.i.j.&.].^.^ > < < < < ( ( / [ ( k.l.          ",
"  m.g./ 3 3 0 0 [ a a A A A H H H  . . .;.;.3.n.o.p.j.&.,.^.^ < < < < ( ( ( 3 3 [ a a q.r.      ",
"  s.4.[ 0 0 0 a a a A A A H H H  . . .;.;.<.t.u.n.v.j.t.w.x.^ < < ( ( ( 3 3 3 3 0 0 [ A y.z.    ",
"    A.3 [ 0 a a a A A A H H  . . . .;.;.<.3.n.B.B.C.D.E.F.G.9 < ( ( [ [ 3 3 3 0 0 0 [ a H H.    ",
"      I.H a a A A H H H  . . .;.;.;.<.<.<.<.3.b.j.D.3.J.q K./ ( / a L.M.3 [ 0 0 0 a a a  .N.    ",
"        O.a H H H  . . .;.;.;.<.<.<.<.<.<.3.3.3.b.{.P.Q.q R.[ [ [ S.y T.U.a 0 [ a a a A  .V.    ",
"        W.X.Y.Y.Y.Y.Y.Y.Y.Y.Y.Y.Z.J.`.`.`. + + +.+++@+S.#+$+;.%+&+*+=.a a 0 a a a A A H =+-+    ",
"            ;+>+,+'+'+'+'+)+!+~+{+]+k k k k k k ^+S.R.( /+Y V p @.(+a [ [ a a a A A A ;._+:+    ",
"                              <+(.; /.c.c.c.c.c.c.< / A [+}+|+1+a a 0 a a a a A A A H 2+3+      ",
"                              4+/.] ] ^ ^ ^ ^ 9 9 9 / a 5+6+7+a [ 0 a a a A A A A H ;.O.8+      ",
"                              d.^ > > < < < < ( ( ( [ 9+x 5 a 0 0 a a a A A A A H H  .0+a+      ",
"                            b+, ^ < < < < ( ( ( 3 3 A F c+P a [ a a a A A A A H H ;.q.d+        ",
"                            e+^ < < < < ( ( ( 3 3 [ f+#+B.a a a a A A A A H H H  .<.g+h+        ",
"                            4.9 < < < ( ( ( 3 3 3 A i+j+k+A a a A A A A H H H  .;.2+l+          ",
"                            4.9 < ( ( ( 3 3 3 3 0 a 9+9.2+a a A A A A H H H  . .<.m+n+          ",
"                            o+c./ ( ( 3 3 3 3 0 0 0 A H a A A A A H H H  . . .;.p+q+            ",
"                              r+/ [ / 3 3 0 0 0 0 a a a A A A A H H H  . . . .3.s+t+            ",
"                                u+v+3 a a 0 0 [ a a a A A A A H H H  .<. . .;.;.w+              ",
"                                  x+y+z+4 A A a a a A A A A H H H <.8.A+B+3.3.C+D+              ",
"                                        E+F+y.H H H A A H H H  .;.G+%.o.7.b.3.H+I+              ",
"                                            J+ +|.A  . .H H  . .;.@.K+o.t.3.&.L+                ",
"                                              M+N+O+_+2+;.;. . .;.b.P+Q+u.j.R+S+                ",
"                                                  T+U+V+W+X+;.<.<.<.n.Y+b.Z+`+                  ",
"                                                        ,+ @ +:  .b.j.j..@+@@@                  ",
"                                                            #@$@%@&@*@&@=@-@                    ",
"                                                                    ;@>@S+                      ",
"                                                                                                "};
